<svg width="500" zoomAndPan="magnify" viewBox="0 0 375 374.999991" height="500" preserveAspectRatio="xMidYMid meet" version="1.0">
            <defs>
                <clipPath id="eb2ad10766">
                    <path d="M 81 15 L 325 15 L 325 317 L 81 317 Z M 81 15 " clipRule="nonzero" />
                </clipPath>
                <clipPath id="b7bfee1a90">
                    <path d="M 50.335938 58.527344 L 227.152344 3.265625 L 324.921875 316.09375 L 148.105469 371.355469 Z M 50.335938 58.527344 " clipRule="nonzero" />
                </clipPath>
                <clipPath id="374b326fd8">
                    <path d="M 226.804688 3.375 L 49.988281 58.636719 L 147.757812 371.464844 L 324.574219 316.203125 Z M 226.804688 3.375 " clipRule="nonzero" />
                </clipPath>
            </defs>
            <g clipPath="url(#eb2ad10766)">
                <g clipPath="url(#b7bfee1a90)">
                    <g clipPath="url(#374b326fd8)">
                        <path className="fill-foreground" d="M 275.527344 159.945312 C 275.527344 159.945312 216.820312 178.292969 216.820312 178.292969 C 216.820312 178.292969 324.453125 316.496094 324.453125 316.496094 C 324.453125 316.496094 81.0625 156.285156 81.0625 156.285156 C 81.0625 156.285156 159.257812 131.5625 159.257812 131.5625 C 159.257812 131.5625 89.621094 46.210938 89.621094 46.210938 C 89.621094 46.210938 187.464844 15.632812 187.464844 15.632812 C 187.464844 15.632812 275.527344 159.949219 275.527344 159.949219 Z M 275.527344 159.945312 " fillOpacity="1" fillRule="nonzero" />
                    </g>
                </g>
            </g>
        </svg>