{
	"asset":{
		"generator":"Khronos glTF Blender I/O v3.5.30",
		"version":"2.0"
	},
	"scene":0,
	"scenes":[
		{
			"name":"Scene",
			"nodes":[
				36
			]
		}
	],
	"nodes":[
		{
			"name":"Bishop.001",
			"translation":[
				-3,
				0,
				0
			]
		},
		{
			"children":[
				0
			],
			"name":"Bishop",
			"rotation":[
				0.70710688829422,
				0,
				0,
				0.7071066498756409
			],
			"translation":[
				-2,
				0,
				0
			]
		},
		{
			"name":"Bishop.003",
			"translation":[
				3,
				0,
				0
			]
		},
		{
			"children":[
				2
			],
			"name":"Bishop.002",
			"rotation":[
				0,
				-0.7071068286895752,
				-0.7071068286895752,
				0
			],
			"translation":[
				-2,
				-7,
				0
			]
		},
		{
			"mesh":0,
			"name":"Board_0",
			"translation":[
				-3.500000238418579,
				0,
				3.500000238418579
			]
		},
		{
			"mesh":1,
			"name":"Board_1",
			"translation":[
				-3.499999761581421,
				0.01050958689302206,
				3.5000016689300537
			]
		},
		{
			"children":[
				4,
				5
			],
			"name":"Board",
			"rotation":[
				0.70710688829422,
				0,
				0,
				0.7071066498756409
			]
		},
		{
			"name":"King",
			"rotation":[
				0.70710688829422,
				0,
				0,
				0.7071066498756409
			],
			"translation":[
				-4,
				0,
				0
			]
		},
		{
			"name":"King.001",
			"rotation":[
				0.70710688829422,
				0,
				0,
				0.7071066498756409
			],
			"translation":[
				-3,
				-7,
				0
			]
		},
		{
			"name":"Knight.001",
			"translation":[
				-5,
				0,
				0
			]
		},
		{
			"children":[
				9
			],
			"name":"Knight",
			"rotation":[
				0.70710688829422,
				0,
				0,
				0.7071066498756409
			],
			"translation":[
				-1,
				0,
				0
			]
		},
		{
			"name":"Knight.002",
			"rotation":[
				0,
				-0.7071068286895752,
				-0.7071068286895752,
				0
			],
			"translation":[
				-1,
				-7,
				0
			]
		},
		{
			"name":"Knight.003",
			"rotation":[
				0,
				-0.7071068286895752,
				-0.7071068286895752,
				0
			],
			"translation":[
				-6,
				-7,
				0
			]
		},
		{
			"name":"Pawn.001",
			"translation":[
				-1.000000238418579,
				0,
				0
			]
		},
		{
			"name":"Pawn.002",
			"translation":[
				-2.000000238418579,
				0,
				0
			]
		},
		{
			"name":"Pawn.003",
			"translation":[
				-3.000000238418579,
				0,
				0
			]
		},
		{
			"name":"Pawn.004",
			"translation":[
				-4,
				0,
				0
			]
		},
		{
			"name":"Pawn.005",
			"translation":[
				-5,
				0,
				0
			]
		},
		{
			"name":"Pawn.006",
			"translation":[
				-6,
				0,
				0
			]
		},
		{
			"name":"Pawn.007",
			"translation":[
				-7,
				0,
				0
			]
		},
		{
			"children":[
				13,
				14,
				15,
				16,
				17,
				18,
				19
			],
			"name":"Pawn",
			"rotation":[
				0.70710688829422,
				0,
				0,
				0.7071066498756409
			],
			"translation":[
				0,
				-1,
				0
			]
		},
		{
			"name":"Pawn.008",
			"rotation":[
				0.70710688829422,
				0,
				0,
				0.7071066498756409
			],
			"translation":[
				0,
				-6.000000476837158,
				0
			]
		},
		{
			"name":"Pawn.009",
			"rotation":[
				0.70710688829422,
				0,
				0,
				0.7071066498756409
			],
			"translation":[
				-1,
				-6.000000476837158,
				0
			]
		},
		{
			"name":"Pawn.010",
			"rotation":[
				0.70710688829422,
				0,
				0,
				0.7071066498756409
			],
			"translation":[
				-2,
				-6.000000476837158,
				0
			]
		},
		{
			"name":"Pawn.011",
			"rotation":[
				0.70710688829422,
				0,
				0,
				0.7071066498756409
			],
			"translation":[
				-3,
				-6.000000476837158,
				0
			]
		},
		{
			"name":"Pawn.012",
			"rotation":[
				0.70710688829422,
				0,
				0,
				0.7071066498756409
			],
			"translation":[
				-4,
				-6.000000476837158,
				0
			]
		},
		{
			"name":"Pawn.013",
			"rotation":[
				0.70710688829422,
				0,
				0,
				0.7071066498756409
			],
			"translation":[
				-5,
				-6.000000476837158,
				0
			]
		},
		{
			"name":"Pawn.014",
			"rotation":[
				0.70710688829422,
				0,
				0,
				0.7071066498756409
			],
			"translation":[
				-6,
				-6.000000476837158,
				0
			]
		},
		{
			"name":"Pawn.015",
			"rotation":[
				0.70710688829422,
				0,
				0,
				0.7071066498756409
			],
			"translation":[
				-7,
				-6.000000476837158,
				0
			]
		},
		{
			"name":"Queen",
			"rotation":[
				0.70710688829422,
				0,
				0,
				0.7071066498756409
			],
			"translation":[
				-3,
				0,
				0
			]
		},
		{
			"name":"Queen.001",
			"rotation":[
				0.70710688829422,
				0,
				0,
				0.7071066498756409
			],
			"translation":[
				-4,
				-7,
				0
			]
		},
		{
			"name":"Rook.001",
			"translation":[
				-7,
				0,
				0
			]
		},
		{
			"children":[
				31
			],
			"name":"Rook",
			"rotation":[
				0.70710688829422,
				0,
				0,
				0.7071066498756409
			]
		},
		{
			"name":"Rook.002",
			"rotation":[
				0.70710688829422,
				0,
				0,
				0.7071066498756409
			],
			"translation":[
				0,
				-7,
				0
			]
		},
		{
			"name":"Rook.003",
			"rotation":[
				0.70710688829422,
				0,
				0,
				0.7071066498756409
			],
			"translation":[
				-7,
				-7,
				0
			]
		},
		{
			"children":[
				1,
				3,
				6,
				7,
				8,
				10,
				11,
				12,
				20,
				21,
				22,
				23,
				24,
				25,
				26,
				27,
				28,
				29,
				30,
				32,
				33,
				34
			],
			"name":"Root"
		},
		{
			"children":[
				35
			],
			"name":"Sketchfab_model",
			"rotation":[
				-0.70710688829422,
				0,
				0,
				0.7071066498756409
			],
			"translation":[
				3.547015905380249,
				0,
				-3.508985757827759
			]
		}
	],
	"materials":[
		{
			"doubleSided":true,
			"name":"Lights",
			"pbrMetallicRoughness":{
				"baseColorFactor":[
					0.7379109859466553,
					0.6444797515869141,
					0.539479672908783,
					1
				],
				"metallicFactor":0,
				"roughnessFactor":0.6000000238418579
			}
		},
		{
			"doubleSided":true,
			"name":"Darks",
			"pbrMetallicRoughness":{
				"baseColorFactor":[
					0.07227184623479843,
					0.07227184623479843,
					0.07227184623479843,
					1
				],
				"metallicFactor":0,
				"roughnessFactor":0.6000000238418579
			}
		}
	],
	"meshes":[
		{
			"name":"Board_0",
			"primitives":[
				{
					"attributes":{
						"POSITION":0,
						"TEXCOORD_0":1,
						"NORMAL":2,
						"TANGENT":3
					},
					"indices":4,
					"material":0
				}
			]
		},
		{
			"name":"Board_1",
			"primitives":[
				{
					"attributes":{
						"POSITION":5,
						"TEXCOORD_0":6,
						"NORMAL":7,
						"TANGENT":8
					},
					"indices":9,
					"material":1
				}
			]
		}
	],
	"accessors":[
		{
			"bufferView":0,
			"componentType":5126,
			"count":94,
			"max":[
				4.006350040435791,
				0,
				4
			],
			"min":[
				-4.006350040435791,
				0,
				-4
			],
			"type":"VEC3"
		},
		{
			"bufferView":1,
			"componentType":5126,
			"count":94,
			"type":"VEC2"
		},
		{
			"bufferView":2,
			"componentType":5126,
			"count":94,
			"type":"VEC3"
		},
		{
			"bufferView":3,
			"componentType":5126,
			"count":94,
			"type":"VEC4"
		},
		{
			"bufferView":4,
			"componentType":5123,
			"count":192,
			"type":"SCALAR"
		},
		{
			"bufferView":5,
			"componentType":5126,
			"count":408,
			"max":[
				4.999999523162842,
				0.10568041354417801,
				4.999998569488525
			],
			"min":[
				-5.000000476837158,
				-0.5604596138000488,
				-5.000001430511475
			],
			"type":"VEC3"
		},
		{
			"bufferView":6,
			"componentType":5126,
			"count":408,
			"type":"VEC2"
		},
		{
			"bufferView":7,
			"componentType":5126,
			"count":408,
			"type":"VEC3"
		},
		{
			"bufferView":8,
			"componentType":5126,
			"count":408,
			"type":"VEC4"
		},
		{
			"bufferView":9,
			"componentType":5123,
			"count":624,
			"type":"SCALAR"
		}
	],
	"bufferViews":[
		{
			"buffer":0,
			"byteLength":1128,
			"byteOffset":0,
			"target":34962
		},
		{
			"buffer":0,
			"byteLength":752,
			"byteOffset":1128,
			"target":34962
		},
		{
			"buffer":0,
			"byteLength":1128,
			"byteOffset":1880,
			"target":34962
		},
		{
			"buffer":0,
			"byteLength":1504,
			"byteOffset":3008,
			"target":34962
		},
		{
			"buffer":0,
			"byteLength":384,
			"byteOffset":4512,
			"target":34963
		},
		{
			"buffer":0,
			"byteLength":4896,
			"byteOffset":4896,
			"target":34962
		},
		{
			"buffer":0,
			"byteLength":3264,
			"byteOffset":9792,
			"target":34962
		},
		{
			"buffer":0,
			"byteLength":4896,
			"byteOffset":13056,
			"target":34962
		},
		{
			"buffer":0,
			"byteLength":6528,
			"byteOffset":17952,
			"target":34962
		},
		{
			"buffer":0,
			"byteLength":1248,
			"byteOffset":24480,
			"target":34963
		}
	],
	"buffers":[
		{
			"byteLength":25728,
			"uri":"data:application/octet-stream;base64,"
		}
	]
}
